# xmcd
#
# Track frame offsets: 
#        150
#        17350
#        37002
#        58622
#        76154
#        92821
#        109693
#        125091
#        139096
#        156509
#        170678
#        183639
#        198272
#        208061
#        223209
#        234852
#        248166
#        260601
#        277129
#        294918
#        306567
#        325481
#
# Disc length: 4505 seconds
#
# Revision: 1
# Processed by: cddbd v1.5.2PL0 Copyright (c) Steve Scherf et al.
# Submitted via: ExactAudioCopyFreeDBPlugin 1.0
#
DISCID=53119716
DTITLE=Jools Holland and his Rhythm and Blues Orchestra - Moving out to 
DTITLE=the Country
DYEAR=2006
DGENRE=Country
TTITLE0=KT Tunstall - Darkness on the face of the Earth
TTITLE1=Richard Hawley - I'm so lonesome I could cry
TTITLE2=Solomon Burke - Moving out to the country
TTITLE3=Lulu - She'll have to go
TTITLE4=Bob Geldof - For the good times
TTITLE5=India Arie - Georgia
TTITLE6=Brian Eno - Dreaming my dreams with you
TTITLE7=Mark Knopfler - You win again
TTITLE8=David Mealmont - Misty Blue
TTITLE9=Tom Jones - I wish I was 18 again
TTITLE10=Louise Marshall - Sweet Dreams
TTITLE11=Marc Almond - Games people play
TTITLE12=Jools Holland - Boogie woogie country girl
TTITLE13=Paul Carrack - Take these chains from my heart
TTITLE14=Jools Holland - Rocket to the moon
TTITLE15=Ruby Turner - It ain't gonna worry my mind
TTITLE16=Tom Jones - Friends not lovers
TTITLE17=Lulu - I can't stop loving you
TTITLE18=Dr. John - Dead hosts welcome
TTITLE19=Sam Brown - Feel like going home
TTITLE20=Bob Geldof - The Pilgrim
TTITLE21=Jools Holland - Where do I go from here
EXTD=Jools Holland and friends sing Country
EXTT0=
EXTT1=
EXTT2=
EXTT3=
EXTT4=
EXTT5=
EXTT6=
EXTT7=
EXTT8=
EXTT9=
EXTT10=
EXTT11=
EXTT12=
EXTT13=
EXTT14=
EXTT15=
EXTT16=
EXTT17=
EXTT18=
EXTT19=
EXTT20=
EXTT21=
PLAYORDER=
